<?xml version="1.0" standalone="no"?>
<!DOCTYPE svg PUBLIC "-//W3C//DTD SVG 20010904//EN"
 "http://www.w3.org/TR/2001/REC-SVG-20010904/DTD/svg10.dtd">
<svg version="1.0" xmlns="http://www.w3.org/2000/svg"
 width="208.000000pt" height="208.000000pt" viewBox="0 0 208.000000 208.000000"
 preserveAspectRatio="xMidYMid meet">
<metadata>
Created by potrace 1.14, written by Peter Selinger 2001-2017
</metadata>
<g transform="translate(0.000000,208.000000) scale(0.100000,-0.100000)"
fill="#000000" stroke="none">
<path d="M914 2018 c-3 -5 -9 -6 -14 -3 -5 3 -37 -1 -72 -10 -35 -8 -74 -18
-88 -21 -13 -3 -28 -11 -32 -17 -4 -7 -8 -9 -8 -5 0 7 -38 -7 -110 -40 -56
-25 -169 -102 -185 -125 -9 -12 -19 -21 -23 -21 -4 1 -6 -2 -4 -8 1 -5 -1 -7
-6 -4 -10 6 -62 -48 -62 -65 0 -7 -3 -10 -6 -6 -6 6 -50 -40 -54 -58 -2 -5
-11 -16 -21 -23 -11 -7 -19 -18 -19 -24 0 -6 -10 -25 -23 -42 -23 -31 -85
-168 -106 -236 -26 -83 -38 -187 -35 -298 1 -64 5 -128 8 -142 3 -14 8 -38 12
-55 25 -132 104 -294 201 -417 26 -32 156 -158 160 -154 2 2 18 -10 34 -25 17
-16 35 -26 40 -23 5 3 9 1 9 -5 0 -11 153 -89 188 -96 11 -2 29 -8 39 -13 73
-37 284 -57 429 -40 68 8 164 30 164 37 0 3 10 7 23 7 27 2 181 72 185 85 2 5
8 9 14 9 34 0 203 146 266 230 15 19 32 40 38 47 19 20 81 135 104 193 30 75
61 185 68 245 7 61 7 216 -1 270 -13 95 -20 125 -29 125 -5 0 -7 4 -4 9 7 10
-33 120 -65 184 -36 70 -102 166 -111 161 -5 -3 -8 -2 -7 3 4 15 -13 43 -26
43 -8 0 -17 5 -21 12 -5 7 -3 8 7 3 8 -5 3 3 -11 18 -14 15 -29 27 -33 27 -5
0 -20 14 -34 30 -13 17 -29 28 -34 24 -5 -3 -9 1 -9 8 0 13 -61 58 -79 58 -5
0 -11 4 -13 8 -1 4 -20 18 -41 30 -21 12 -35 17 -31 11 4 -7 -6 -2 -22 9 -34
25 -187 76 -259 87 -71 11 -285 13 -291 3z"/>
</g>
</svg>
